<svg xmlns="http://www.w3.org/2000/svg" width="6551" height="3010" viewBox="0 0 6551 3010"><path d="M 12 289 L 12 289 L 12 289 L 12 289 L 12 286 L 12 285 L 12 282 L 10 280 L 10 280 L 10 277 L 10 275 L 10 272 L 10 271 L 10 271 L 11 268 L 14 266 L 18 263 L 28 261 L 28 261 L 33 259 L 46 256 L 56 253 L 70 250 L 71 250 L 89 246 L 113 237 L 139 234 L 167 226 L 169 225 L 200 223 L 233 220 L 265 210 L 295 208 L 297 208 L 328 204 L 361 201 L 392 191 L 421 190 L 423 190 L 454 186 L 484 174 L 514 170 L 540 160 L 542 160 L 570 156 L 596 145 L 623 142 L 646 133 L 649 131 L 674 129 L 698 120 L 722 118 L 740 116 L 742 115 L 758 112 L 772 109 L 785 106 L 796 104 L 796 104 L 806 101 L 810 99 L 820 97 L 821 95 L 822 95 L 825 95 L 826 93 L 826 93 L 828 90 L 828 90 L 828 90 L 828 88 L 825 85 L 817 85 L 815 85 L 812 83 L 800 83 L 791 81 L 781 81 L 779 81 L 766 79 L 753 79 L 739 79 L 724 79 L 722 79 L 701 79 L 680 79 L 659 79 L 640 79 L 636 79 L 614 76 L 593 76 L 574 74 L 561 74 L 557 74 L 541 72 L 526 69 L 512 69 L 502 67 L 500 67 L 487 67 L 476 65 L 465 65 L 457 65 L 455 65 L 446 65 L 442 65 L 431 65 L 429 66 L 428 66 L 425 68 L 415 71 L 413 74 L 410 76 L 409 77 L 406 81 L 403 85 L 399 96 L 396 99 L 395 101 L 393 114 L 391 126 L 389 141 L 387 153 L 387 158 L 387 179 L 387 202 L 387 228 L 387 246 L 387 255 L 387 282 L 387 310 L 390 339 L 392 358 L 393 366 L 397 391 L 399 421 L 404 450 L 410 472 L 413 480 L 416 511 L 427 539 L 430 566 L 438 584 L 441 591 L 444 616 L 455 638 L 458 659 L 464 672 L 468 678 L 471 696 L 476 713 L 485 730 L 486 741 L 487 745 L 487 745" stroke="#FFC114" stroke-width="50" fill="none" stroke-linecap="round" stroke-linejoin="round"/>
<path d="M 706 220 L 706 220 L 703 220 L 701 209 L 699 204 L 698 199 L 693 188 L 690 177 L 687 165 L 685 159 L 683 153 L 680 142 L 677 131 L 675 120 L 674 114 L 673 110 L 671 101 L 668 91 L 666 89 L 666 84 L 666 80 L 664 80 L 664 77 L 661 75 L 661 75 L 661 75 L 661 75 L 661 79 L 661 88 L 661 93 L 661 97 L 661 110 L 661 125 L 661 148 L 661 161 L 661 177 L 661 210 L 661 247 L 663 285 L 663 302 L 664 321 L 665 356 L 666 389 L 668 421 L 668 435 L 669 455 L 671 485 L 672 513 L 673 540 L 673 552 L 674 566 L 675 591 L 679 617 L 681 642 L 681 651 L 682 664 L 683 688 L 685 708 L 685 729 L 686 736 L 687 748 L 688 764 L 689 776 L 690 788 L 692 790 L 693 792 L 698 805 L 699 807 L 702 810 L 702 812 L 704 813 L 706 816 L 707 817 L 709 818 L 709 818 L 710 819 L 711 819 L 712 819 L 714 819 L 714 818 L 715 817 L 715 813 L 717 803 L 718 800 L 719 795 L 719 786 L 720 775 L 723 764 L 725 751 L 726 746 L 728 738 L 730 724 L 732 708 L 736 689 L 737 681 L 740 665 L 752 639 L 756 613 L 768 591 L 770 585 L 772 570 L 786 553 L 796 535 L 807 518 L 811 512 L 820 500 L 833 483 L 845 467 L 860 451 L 865 447 L 877 437 L 891 424 L 907 413 L 923 402 L 927 401 L 937 399 L 951 388 L 966 386 L 979 383 L 983 383 L 992 381 L 1005 381 L 1015 381 L 1024 381 L 1027 381 L 1029 383 L 1040 387 L 1044 396 L 1048 400 L 1050 401 L 1053 409 L 1058 413 L 1061 426 L 1064 437 L 1065 439 L 1066 448 L 1067 462 L 1068 478 L 1068 496 L 1068 500 L 1068 513 L 1068 531 L 1066 547 L 1064 563 L 1063 567 L 1061 581 L 1059 602 L 1056 623 L 1052 643 L 1051 647 L 1050 662 L 1047 681 L 1045 702 L 1043 721 L 1043 724 L 1043 721" stroke="#FFC114" stroke-width="50" fill="none" stroke-linecap="round" stroke-linejoin="round"/>
<path d="M 1237 524 L 1237 524 L 1237 523 L 1237 520 L 1237 516 L 1237 516 L 1237 507 L 1238 505 L 1239 502 L 1240 498 L 1240 498 L 1242 494 L 1243 491 L 1243 488 L 1245 484 L 1245 484 L 1246 481 L 1247 481 L 1250 481 L 1252 481 L 1252 481 L 1253 481 L 1256 482 L 1258 485 L 1259 490 L 1259 490 L 1261 502 L 1264 511 L 1264 523 L 1266 535 L 1266 536 L 1267 550 L 1269 569 L 1272 593 L 1275 621 L 1275 621 L 1277 651 L 1280 683 L 1281 715 L 1282 746 L 1282 748 L 1283 779 L 1284 809 L 1286 837 L 1286 862 L 1286 862 L 1288 886 L 1289 910 L 1290 932 L 1292 954 L 1292 955 L 1294 975 L 1294 996 L 1297 1016 L 1299 1035 L 1299 1036 L 1302 1052 L 1302 1052" stroke="#FFC114" stroke-width="50" fill="none" stroke-linecap="round" stroke-linejoin="round"/>
<path d="M 1218 221 L 1218 221 L 1218 221 L 1218 221 L 1216 218 L 1213 209 L 1210 207 L 1207 198 L 1207 196 L 1205 193 L 1202 184 L 1200 180 L 1200 171 L 1200 170 L 1200 168 L 1200 158 L 1200 156 L 1200 148 L 1200 147 L 1201 144 L 1205 141 L 1208 137 L 1216 135 L 1218 134 L 1221 131 L 1226 127 L 1235 125 L 1239 123 L 1240 123 L 1251 123 L 1254 123 L 1264 123 L 1268 123 L 1268 123 L 1278 127 L 1282 131 L 1292 142 L 1295 145 L 1296 145 L 1300 157 L 1304 161 L 1307 174 L 1308 177 L 1308 178 L 1310 191 L 1310 199 L 1310 209 L 1310 212 L 1310 214 L 1306 225 L 1303 230 L 1294 242 L 1292 245 L 1291 246 L 1282 258 L 1278 263 L 1268 274 L 1265 277 L 1264 278 L 1252 290 L 1248 294 L 1235 305 L 1233 307 L 1232 309 L 1219 318 L 1216 321 L 1204 325 L 1201 327 L 1200 327 L 1188 328 L 1184 329 L 1171 329 L 1168 329 L 1167 329 L 1156 329 L 1153 326 L 1142 317 L 1141 314 L 1140 313 L 1131 302 L 1128 293 L 1124 283 L 1122 273 L 1121 269 L 1118 255 L 1115 236 L 1115 216 L 1116 202 L 1116 196 L 1119 177 L 1123 160 L 1127 144 L 1134 133 L 1137 129 L 1141 117 L 1151 106 L 1155 103 L 1158 96 L 1159 93 L 1169 93 L 1171 89 L 1175 87 L 1178 85 L 1179 84 L 1184 84 L 1193 84 L 1193 84" stroke="#FFC114" stroke-width="50" fill="none" stroke-linecap="round" stroke-linejoin="round"/>
<path d="M 1601 437 L 1601 437 L 1601 434 L 1601 434 L 1601 432 L 1601 430 L 1598 428 L 1597 425 L 1595 424 L 1594 423 L 1592 421 L 1589 418 L 1587 416 L 1586 416 L 1584 416 L 1581 413 L 1572 413 L 1570 412 L 1565 412 L 1560 412 L 1559 412 L 1549 412 L 1546 413 L 1539 413 L 1534 413 L 1530 417 L 1518 421 L 1514 426 L 1507 429 L 1502 431 L 1498 440 L 1486 444 L 1483 448 L 1478 453 L 1473 458 L 1470 462 L 1461 474 L 1459 477 L 1457 482 L 1456 488 L 1453 491 L 1451 502 L 1451 505 L 1451 510 L 1451 515 L 1451 519 L 1451 529 L 1452 532 L 1453 537 L 1456 543 L 1459 547 L 1468 551 L 1473 561 L 1478 562 L 1484 564 L 1489 567 L 1500 572 L 1511 581 L 1516 583 L 1524 585 L 1536 589 L 1549 599 L 1562 602 L 1567 604 L 1575 607 L 1587 616 L 1600 619 L 1613 624 L 1618 628 L 1625 634 L 1638 637 L 1649 642 L 1661 651 L 1665 653 L 1673 655 L 1683 665 L 1692 669 L 1701 680 L 1703 681 L 1706 683 L 1716 692 L 1719 696 L 1722 700 L 1723 704 L 1725 710 L 1725 713 L 1727 718 L 1727 728 L 1727 729 L 1727 732 L 1725 742 L 1716 745 L 1713 757 L 1709 758 L 1701 762 L 1698 773 L 1683 778 L 1670 792 L 1665 796 L 1654 803 L 1635 816 L 1614 830 L 1592 843 L 1584 847 L 1570 854 L 1549 864 L 1527 869 L 1506 881 L 1500 881 L 1486 884 L 1468 889 L 1451 894 L 1433 897 L 1428 898 L 1433 897" stroke="#FFC114" stroke-width="50" fill="none" stroke-linecap="round" stroke-linejoin="round"/>
<path d="M 2645 526 L 2645 526 L 2645 526 L 2645 523 L 2645 513 L 2645 513 L 2645 510 L 2645 499 L 2645 496 L 2645 485 L 2645 485 L 2645 482 L 2645 472 L 2645 468 L 2643 459 L 2643 459 L 2643 456 L 2641 447 L 2641 445 L 2641 442 L 2641 442 L 2639 438 L 2639 434 L 2639 432 L 2639 432 L 2639 432 L 2637 432 L 2637 432 L 2637 434 L 2637 437 L 2637 437 L 2637 446 L 2634 451 L 2634 464 L 2634 476 L 2634 476 L 2632 490 L 2632 507 L 2629 529 L 2629 553 L 2629 553 L 2627 581 L 2627 609 L 2627 634 L 2627 659 L 2627 661 L 2627 685 L 2627 711 L 2627 737 L 2627 760 L 2627 762 L 2627 786 L 2627 809 L 2627 832 L 2628 851 L 2628 854 L 2629 875 L 2631 894 L 2632 913 L 2633 928 L 2633 930 L 2635 946 L 2637 959 L 2640 971 L 2640 971" stroke="#FFC114" stroke-width="50" fill="none" stroke-linecap="round" stroke-linejoin="round"/>
<path d="M 2639 90 L 2639 90 L 2637 90 L 2634 88 L 2632 80 L 2631 79 L 2620 75 L 2616 65 L 2607 63 L 2603 55 L 2603 53 L 2593 50 L 2589 47 L 2578 38 L 2576 37 L 2575 36 L 2564 33 L 2560 30 L 2547 28 L 2545 26 L 2544 25 L 2531 25 L 2528 25 L 2516 26 L 2513 29 L 2513 30 L 2502 33 L 2499 44 L 2488 49 L 2486 58 L 2485 61 L 2475 72 L 2471 85 L 2458 101 L 2456 111 L 2455 115 L 2443 129 L 2441 144 L 2437 157 L 2436 166 L 2435 171 L 2433 184 L 2433 196 L 2433 208 L 2433 215 L 2433 218 L 2433 229 L 2434 238 L 2437 242 L 2444 249 L 2447 252 L 2450 255 L 2459 258 L 2463 261 L 2471 263 L 2475 263 L 2479 264 L 2491 266 L 2496 266 L 2503 266 L 2507 266 L 2516 263 L 2526 260 L 2534 250 L 2540 247 L 2544 246 L 2554 234 L 2566 223 L 2577 212 L 2583 204 L 2586 199 L 2597 185 L 2607 172 L 2611 160 L 2617 152 L 2621 147 L 2624 134 L 2628 123 L 2631 111 L 2631 104 L 2632 99 L 2632 88 L 2632 77 L 2632 67 L 2630 61 L 2629 57 L 2627 46 L 2624 37 L 2620 33 L 2618 27 L 2616 22 L 2613 20 L 2610 16 L 2607 12 L 2604 12 L 2603 10 L 2599 10 L 2596 10 L 2593 10 L 2590 11 L 2589 12 L 2586 15 L 2586 15" stroke="#FFC114" stroke-width="50" fill="none" stroke-linecap="round" stroke-linejoin="round"/>
<path d="M 3095 391 L 3095 391 L 3093 391 L 3093 389 L 3090 387 L 3089 386 L 3089 385 L 3086 383 L 3084 380 L 3081 378 L 3080 378 L 3078 378 L 3075 375 L 3064 375 L 3060 374 L 3056 374 L 3050 374 L 3046 374 L 3035 374 L 3032 374 L 3027 375 L 3019 377 L 3016 380 L 3003 385 L 2999 394 L 2995 395 L 2986 397 L 2983 408 L 2972 412 L 2968 423 L 2964 425 L 2957 428 L 2954 439 L 2944 444 L 2941 455 L 2938 457 L 2932 460 L 2932 472 L 2929 476 L 2927 488 L 2926 492 L 2924 492 L 2924 504 L 2924 508 L 2925 520 L 2927 521 L 2929 523 L 2932 534 L 2943 537 L 2946 548 L 2950 549 L 2957 551 L 2967 562 L 2978 566 L 2989 578 L 2994 581 L 3003 587 L 3019 596 L 3034 605 L 3049 615 L 3054 617 L 3063 624 L 3076 629 L 3090 640 L 3103 645 L 3107 648 L 3116 656 L 3129 661 L 3140 672 L 3152 676 L 3154 679 L 3161 686 L 3165 690 L 3175 700 L 3178 704 L 3179 705 L 3182 708 L 3185 713 L 3187 718 L 3187 722 L 3187 725 L 3187 732 L 3187 735 L 3185 740 L 3182 749 L 3179 749 L 3171 752 L 3168 757 L 3154 766 L 3144 770 L 3140 770 L 3132 775 L 3119 784 L 3102 788 L 3082 800 L 3077 803 L 3059 805 L 3033 816 L 3008 821 L 2986 830 L 2982 832 L 2965 833 L 2946 837 L 2927 841 L 2910 845 L 2906 846 L 2894 848 L 2879 851 L 2865 855 L 2853 859 L 2850 860 L 2841 861 L 2841 861" stroke="#FFC114" stroke-width="50" fill="none" stroke-linecap="round" stroke-linejoin="round"/>
<path d="M 3924 128 L 3924 128 L 3924 128 L 3924 128 L 3924 128 L 3924 125 L 3924 115 L 3921 113 L 3921 113 L 3921 110 L 3919 106 L 3919 97 L 3917 97 L 3917 97 L 3917 93 L 3915 90 L 3915 88 L 3912 85 L 3912 85 L 3912 85 L 3910 85 L 3910 85 L 3907 85 L 3907 85 L 3907 89 L 3905 93 L 3905 104 L 3903 109 L 3903 109 L 3903 123 L 3901 133 L 3898 145 L 3896 161 L 3896 161 L 3894 182 L 3891 206 L 3889 232 L 3887 259 L 3887 260 L 3885 288 L 3885 314 L 3885 339 L 3885 362 L 3885 363 L 3885 389 L 3885 416 L 3885 445 L 3885 473 L 3885 474 L 3885 502 L 3885 529 L 3885 556 L 3886 580 L 3887 581 L 3888 607 L 3889 631 L 3889 655 L 3889 677 L 3889 678 L 3889 702 L 3889 724 L 3889 743 L 3887 760 L 3887 762 L 3887 762" stroke="#FFC114" stroke-width="50" fill="none" stroke-linecap="round" stroke-linejoin="round"/>
<path d="M 3596 724 L 3596 724 L 3596 724 L 3596 724 L 3595 722 L 3591 720 L 3580 718 L 3578 715 L 3577 714 L 3566 711 L 3563 707 L 3554 704 L 3552 701 L 3552 700 L 3548 697 L 3545 694 L 3542 684 L 3540 682 L 3540 681 L 3540 678 L 3540 675 L 3541 664 L 3544 663 L 3545 662 L 3549 651 L 3561 648 L 3570 638 L 3579 635 L 3582 634 L 3596 621 L 3615 609 L 3637 596 L 3657 586 L 3663 583 L 3690 570 L 3719 557 L 3749 545 L 3772 532 L 3779 529 L 3810 515 L 3842 502 L 3872 488 L 3894 478 L 3904 474 L 3935 462 L 3966 452 L 3996 442 L 4016 434 L 4023 432 L 4048 423 L 4072 420 L 4094 407 L 4108 404 L 4113 404 L 4131 393 L 4147 391 L 4162 381 L 4173 379 L 4177 379 L 4189 375 L 4201 366 L 4210 366 L 4217 365 L 4219 364 L 4223 361 L 4234 359 L 4235 357 L 4238 357 L 4239 357 L 4243 357 L 4246 355 L 4250 355 L 4252 355 L 4252 355 L 4253 355 L 4254 355 L 4254 355 L 4254 357 L 4254 357 L 4254 361 L 4254 370 L 4251 374 L 4248 381 L 4248 385 L 4243 395 L 4240 405 L 4231 418 L 4229 429 L 4227 434 L 4215 455 L 4205 478 L 4196 504 L 4189 521 L 4186 531 L 4177 556 L 4173 581 L 4162 605 L 4159 621 L 4158 630 L 4149 654 L 4149 677 L 4145 700 L 4144 715 L 4143 724 L 4141 749 L 4141 772 L 4141 794 L 4141 806 L 4141 813 L 4142 832 L 4147 847 L 4157 860 L 4160 865 L 4162 869 L 4173 873 L 4178 883 L 4191 886 L 4196 887 L 4200 889 L 4211 891 L 4223 892 L 4237 892 L 4246 892 L 4252 892 L 4269 890 L 4286 879 L 4306 876 L 4317 867 L 4326 861 L 4346 848 L 4365 834 L 4385 819 L 4396 810 L 4405 803 L 4423 786 L 4439 768 L 4456 749 L 4463 737 L 4469 728 L 4482 707 L 4491 688 L 4495 667 L 4497 655 L 4499 646 L 4503 626 L 4503 604 L 4503 583 L 4503 572 L 4503 562 L 4500 540 L 4489 518 L 4486 497 L 4478 486 L 4471 476 L 4462 456 L 4451 438 L 4439 421 L 4432 415 L 4425 408 L 4411 397 L 4397 388 L 4381 385 L 4374 380 L 4367 375 L 4351 375 L 4335 374 L 4319 374 L 4311 374 L 4302 374 L 4286 374 L 4270 375 L 4256 379 L 4249 381 L 4242 383 L 4227 393 L 4215 395 L 4203 404 L 4199 406 L 4193 408 L 4183 421 L 4172 430 L 4163 440 L 4163 440" stroke="#FFC114" stroke-width="50" fill="none" stroke-linecap="round" stroke-linejoin="round"/>
<path d="M 5369 137 L 5369 137 L 5369 137 L 5369 136 L 5369 134 L 5366 125 L 5366 123 L 5364 113 L 5363 111 L 5364 111 L 5361 107 L 5361 104 L 5359 101 L 5359 100 L 5359 97 L 5356 95 L 5356 93 L 5355 93 L 5354 93 L 5352 93 L 5350 93 L 5347 93 L 5345 98 L 5345 99 L 5343 109 L 5339 118 L 5336 127 L 5332 139 L 5332 140 L 5329 152 L 5326 166 L 5322 185 L 5312 209 L 5310 212 L 5309 237 L 5298 268 L 5294 299 L 5285 331 L 5283 336 L 5283 361 L 5280 391 L 5277 423 L 5275 456 L 5275 460 L 5272 490 L 5270 524 L 5268 559 L 5266 594 L 5265 598 L 5266 627 L 5266 660 L 5266 691 L 5266 721 L 5266 724 L 5266 750 L 5266 778 L 5266 805 L 5266 830 L 5266 832 L 5266 853 L 5266 853" stroke="#FFC114" stroke-width="50" fill="none" stroke-linecap="round" stroke-linejoin="round"/>
<path d="M 5008 699 L 5008 699 L 5008 699 L 5008 697 L 5008 694 L 5006 690 L 5006 690 L 5003 681 L 5003 678 L 5001 676 L 5001 672 L 5001 672 L 5001 669 L 5001 665 L 5001 662 L 5001 659 L 5001 659 L 5001 655 L 5002 651 L 5006 648 L 5009 645 L 5009 645 L 5018 642 L 5022 638 L 5033 634 L 5042 631 L 5042 631 L 5053 627 L 5064 626 L 5076 623 L 5087 621 L 5088 621 L 5104 618 L 5120 618 L 5139 616 L 5157 616 L 5159 616 L 5177 613 L 5198 613 L 5218 611 L 5238 609 L 5240 609 L 5261 607 L 5282 603 L 5302 600 L 5322 591 L 5324 591 L 5345 588 L 5366 585 L 5388 574 L 5407 571 L 5409 570 L 5429 559 L 5450 556 L 5470 542 L 5486 533 L 5488 532 L 5507 521 L 5524 511 L 5539 499 L 5552 490 L 5554 489 L 5566 478 L 5577 468 L 5586 459 L 5590 455 L 5590 455 L 5599 442 L 5602 439 L 5605 428 L 5608 425 L 5608 424 L 5611 413 L 5612 410 L 5613 400 L 5613 398 L 5613 397 L 5613 388 L 5613 386 L 5613 377 L 5611 374 L 5610 374 L 5607 366 L 5596 363 L 5594 359 L 5585 357 L 5583 356 L 5580 353 L 5567 350 L 5564 348 L 5552 346 L 5550 345 L 5539 345 L 5529 345 L 5516 345 L 5505 345 L 5502 345 L 5488 345 L 5475 347 L 5462 350 L 5451 353 L 5448 355 L 5434 364 L 5420 367 L 5407 380 L 5396 388 L 5393 391 L 5377 404 L 5363 417 L 5348 434 L 5339 446 L 5336 450 L 5326 466 L 5322 484 L 5310 502 L 5309 518 L 5309 523 L 5306 543 L 5304 562 L 5304 580 L 5304 594 L 5304 599 L 5305 616 L 5307 634 L 5312 651 L 5318 663 L 5321 667 L 5326 683 L 5339 698 L 5350 712 L 5359 720 L 5363 724 L 5377 734 L 5391 745 L 5409 753 L 5421 756 L 5426 757 L 5445 762 L 5464 765 L 5485 766 L 5499 766 L 5505 766 L 5529 766 L 5552 764 L 5577 754 L 5595 752 L 5603 751 L 5631 737 L 5658 726 L 5688 713 L 5709 702 L 5718 698 L 5748 684 L 5776 668 L 5805 651 L 5824 639 L 5833 634 L 5859 615 L 5884 594 L 5909 573 L 5923 559 L 5930 551 L 5948 528 L 5965 502 L 5978 478 L 5987 461 L 5992 452 L 6004 426 L 6008 401 L 6018 378 L 6019 365 L 6020 357 L 6021 337 L 6021 319 L 6021 302 L 6020 294 L 6019 289 L 6016 276 L 6004 266 L 6000 256 L 5992 255 L 5986 253 L 5976 244 L 5967 244 L 5957 240 L 5952 239 L 5948 238 L 5938 236 L 5929 236 L 5917 236 L 5910 236 L 5906 236 L 5892 237 L 5878 240 L 5864 250 L 5856 251 L 5850 253 L 5835 264 L 5820 275 L 5805 286 L 5796 295 L 5790 301 L 5775 314 L 5760 329 L 5746 345 L 5739 354 L 5735 361 L 5726 374 L 5723 387 L 5719 399 L 5718 404 L 5716 409 L 5714 418 L 5714 428 L 5714 432 L 5714 438 L 5714 444 L 5715 448 L 5718 460 L 5723 469 L 5729 474 L 5735 478 L 5744 488 L 5756 498 L 5769 510 L 5778 515 L 5786 521 L 5804 532 L 5825 545 L 5846 556 L 5857 562 L 5869 567 L 5891 578 L 5911 588 L 5933 600 L 5944 605 L 5953 610 L 5971 621 L 5989 631 L 6005 640 L 6012 645 L 6020 649 L 6034 659 L 6046 664 L 6057 675 L 6062 677 L 6066 678 L 6070 689 L 6074 692 L 6078 702 L 6080 704 L 6081 706 L 6082 716 L 6084 720 L 6084 724 L 6084 728 L 6084 734 L 6081 737 L 6078 742 L 6068 751 L 6067 753 L 6065 754 L 6051 765 L 6038 770 L 6019 781 L 6010 783 L 5998 786 L 5974 797 L 5948 802 L 5919 813 L 5908 813 L 5892 815 L 5863 818 L 5835 821 L 5808 822 L 5796 822 L 5781 822 L 5756 822 L 5735 819 L 5715 816 L 5708 812 L 5697 805 L 5681 802 L 5669 789 L 5669 789" stroke="#FFC114" stroke-width="50" fill="none" stroke-linecap="round" stroke-linejoin="round"/>
<path d="M 6192 136 L 6192 136 L 6193 136 L 6194 135 L 6195 134 L 6200 123 L 6209 120 L 6213 107 L 6214 106 L 6217 104 L 6227 91 L 6230 88 L 6235 75 L 6237 72 L 6244 72 L 6246 61 L 6250 58 L 6255 49 L 6256 46 L 6259 46 L 6263 42 L 6266 39 L 6270 37 L 6271 37 L 6273 34 L 6276 34 L 6280 34 L 6282 34 L 6283 34 L 6285 38 L 6287 42 L 6288 55 L 6289 63 L 6289 66 L 6289 75 L 6289 87 L 6289 101 L 6289 120 L 6289 124 L 6287 144 L 6285 171 L 6281 201 L 6278 231 L 6277 237 L 6276 261 L 6273 290 L 6273 320 L 6273 348 L 6273 354 L 6273 374 L 6274 400 L 6278 425 L 6281 450 L 6282 455 L 6285 474 L 6288 500 L 6292 527 L 6295 553 L 6296 557 L 6300 578 L 6303 602 L 6306 624 L 6310 645 L 6310 648 L 6314 664 L 6317 681 L 6320 697 L 6324 713 L 6324 715 L 6327 726 L 6332 738 L 6336 748 L 6339 757 L 6340 758 L 6342 760 L 6346 764 L 6349 767 L 6349 767" stroke="#FFC114" stroke-width="50" fill="none" stroke-linecap="round" stroke-linejoin="round"/>
<path d="M 6024 596 L 6024 596 L 6024 596 L 6024 596 L 6014 594 L 6005 591 L 5995 589 L 5994 589 L 5984 589 L 5975 587 L 5965 587 L 5962 585 L 5962 584 L 5952 583 L 5949 580 L 5946 578 L 5944 575 L 5944 575 L 5944 572 L 5944 569 L 5945 565 L 5949 556 L 5950 555 L 5962 553 L 5975 545 L 5995 535 L 6022 523 L 6023 522 L 6057 508 L 6097 494 L 6138 482 L 6181 469 L 6182 469 L 6225 458 L 6266 446 L 6306 436 L 6344 426 L 6344 426 L 6384 416 L 6384 416" stroke="#FFC114" stroke-width="50" fill="none" stroke-linecap="round" stroke-linejoin="round"/>
<path d="M 941 1815 L 941 1815 L 941 1815 L 939 1813 L 938 1812 L 935 1810 L 926 1806 L 924 1797 L 915 1797 L 914 1796 L 912 1793 L 902 1790 L 898 1788 L 888 1785 L 887 1785 L 885 1783 L 874 1781 L 871 1781 L 860 1781 L 857 1781 L 856 1782 L 847 1785 L 843 1789 L 830 1798 L 826 1801 L 821 1802 L 810 1815 L 799 1828 L 786 1843 L 783 1847 L 770 1863 L 750 1886 L 731 1912 L 712 1938 L 707 1945 L 695 1967 L 679 1996 L 665 2027 L 651 2057 L 647 2065 L 641 2088 L 637 2118 L 627 2148 L 625 2178 L 624 2185 L 625 2208 L 622 2237 L 622 2266 L 622 2292 L 622 2300 L 623 2319 L 627 2345 L 636 2368 L 641 2391 L 642 2397 L 655 2411 L 665 2433 L 677 2450 L 690 2465 L 693 2468 L 706 2476 L 720 2486 L 736 2489 L 753 2492 L 756 2493 L 770 2494 L 786 2495 L 802 2495 L 818 2495 L 821 2495 L 834 2492 L 853 2481 L 871 2471 L 888 2459 L 891 2457 L 906 2444 L 925 2427 L 943 2410 L 962 2391 L 965 2388 L 980 2373 L 998 2353 L 1014 2332 L 1028 2310 L 1029 2309 L 1038 2288 L 1047 2265 L 1051 2243 L 1060 2220 L 1061 2216 L 1061 2197 L 1062 2172 L 1062 2147 L 1060 2123 L 1060 2120 L 1056 2100 L 1045 2077 L 1036 2053 L 1026 2029 L 1024 2027 L 1013 2005 L 998 1981 L 982 1956 L 966 1934 L 963 1930 L 949 1910 L 933 1888 L 917 1869 L 903 1851 L 901 1849 L 891 1836 L 880 1823 L 871 1813 L 861 1804 L 860 1803 L 858 1801 L 847 1789 L 845 1786 L 842 1783 L 842 1783 L 833 1774 L 833 1774 L 830 1772 L 828 1769 L 828 1769 L 828 1767 L 828 1764 L 828 1764 L 828 1763 L 828 1762 L 828 1762 L 828 1762" stroke="#FFC114" stroke-width="50" fill="none" stroke-linecap="round" stroke-linejoin="round"/>
<path d="M 1162 1664 L 1162 1664 L 1162 1664 L 1162 1661 L 1162 1660 L 1162 1656 L 1162 1656 L 1162 1653 L 1162 1652 L 1162 1649 L 1162 1647 L 1162 1647 L 1162 1644 L 1162 1642 L 1162 1640 L 1162 1638 L 1162 1637 L 1162 1637 L 1162 1636 L 1162 1636 L 1160 1636 L 1159 1636 L 1159 1636 L 1157 1640 L 1157 1644 L 1157 1654 L 1157 1655 L 1157 1660 L 1157 1674 L 1157 1684 L 1157 1695 L 1157 1696 L 1157 1712 L 1155 1734 L 1155 1759 L 1155 1784 L 1155 1786 L 1155 1815 L 1155 1844 L 1155 1873 L 1156 1900 L 1156 1904 L 1158 1934 L 1162 1964 L 1165 1996 L 1167 2023 L 1167 2027 L 1171 2056 L 1173 2083 L 1177 2110 L 1179 2134 L 1179 2137 L 1181 2164 L 1184 2191 L 1186 2218 L 1187 2241 L 1188 2244 L 1189 2268 L 1191 2292 L 1192 2315 L 1194 2330 L 1194 2333 L 1196 2349 L 1196 2362 L 1197 2375 L 1197 2385 L 1197 2386 L 1199 2397 L 1199 2402 L 1199 2413 L 1200 2416 L 1200 2416 L 1200 2420 L 1200 2424 L 1200 2427 L 1200 2429 L 1200 2430 L 1200 2432 L 1200 2433 L 1200 2433 L 1201 2433 L 1201 2433 L 1201 2433 L 1201 2430 L 1202 2427 L 1203 2419 L 1204 2416 L 1204 2414 L 1205 2403 L 1205 2399 L 1205 2388 L 1205 2386 L 1205 2375 L 1205 2363 L 1205 2351 L 1206 2337 L 1207 2333 L 1208 2313 L 1209 2288 L 1210 2262 L 1211 2240 L 1212 2234 L 1213 2206 L 1213 2181 L 1215 2157 L 1216 2142 L 1216 2137 L 1218 2119 L 1219 2103 L 1222 2088 L 1223 2078 L 1224 2075 L 1226 2062 L 1229 2050 L 1231 2040 L 1234 2038 L 1235 2037 L 1237 2026 L 1239 2023 L 1243 2012 L 1245 2010 L 1246 2008 L 1251 1997 L 1256 1994 L 1259 1983 L 1262 1981 L 1264 1981 L 1273 1972 L 1276 1969 L 1286 1966 L 1290 1964 L 1291 1962 L 1302 1959 L 1305 1956 L 1316 1954 L 1318 1954 L 1319 1954 L 1330 1954 L 1335 1954 L 1346 1954 L 1350 1955 L 1351 1956 L 1363 1961 L 1367 1970 L 1379 1975 L 1381 1984 L 1383 1988 L 1394 2000 L 1397 2015 L 1408 2032 L 1410 2042 L 1411 2048 L 1416 2064 L 1419 2079 L 1422 2093 L 1422 2101 L 1423 2105 L 1423 2117 L 1423 2129 L 1421 2140 L 1419 2147 L 1418 2151 L 1409 2164 L 1405 2177 L 1393 2190 L 1386 2198 L 1383 2202 L 1370 2216 L 1356 2230 L 1342 2243 L 1332 2251 L 1326 2256 L 1310 2268 L 1294 2279 L 1280 2288 L 1271 2294 L 1264 2297 L 1251 2302 L 1237 2313 L 1224 2315 L 1218 2317 L 1213 2318 L 1202 2322 L 1193 2324 L 1184 2325 L 1182 2326 L 1180 2326 L 1180 2326" stroke="#FFC114" stroke-width="50" fill="none" stroke-linecap="round" stroke-linejoin="round"/>
<path d="M 1740 1945 L 1740 1945 L 1741 1945 L 1742 1945 L 1742 1945 L 1744 1942 L 1746 1939 L 1746 1936 L 1747 1934 L 1748 1932 L 1749 1929 L 1749 1925 L 1749 1921 L 1749 1920 L 1749 1918 L 1746 1915 L 1743 1913 L 1740 1910 L 1736 1909 L 1730 1908 L 1728 1908 L 1719 1908 L 1716 1908 L 1712 1908 L 1708 1908 L 1703 1908 L 1692 1910 L 1689 1913 L 1683 1916 L 1676 1918 L 1673 1928 L 1660 1931 L 1657 1942 L 1651 1945 L 1643 1951 L 1633 1961 L 1624 1972 L 1614 1982 L 1611 1986 L 1605 1994 L 1602 2004 L 1589 2015 L 1586 2024 L 1582 2028 L 1576 2035 L 1573 2045 L 1564 2056 L 1562 2065 L 1561 2066 L 1559 2070 L 1557 2081 L 1557 2086 L 1557 2097 L 1557 2099 L 1557 2101 L 1557 2111 L 1559 2115 L 1563 2124 L 1566 2125 L 1572 2126 L 1576 2130 L 1587 2134 L 1592 2137 L 1593 2138 L 1605 2140 L 1616 2143 L 1627 2146 L 1639 2147 L 1644 2147 L 1654 2148 L 1669 2149 L 1685 2151 L 1701 2151 L 1707 2152 L 1717 2153 L 1733 2156 L 1749 2156 L 1763 2159 L 1767 2160 L 1776 2161 L 1787 2164 L 1798 2165 L 1809 2169 L 1812 2170 L 1814 2173 L 1823 2176 L 1827 2180 L 1831 2183 L 1832 2184 L 1835 2186 L 1838 2190 L 1840 2194 L 1841 2197 L 1842 2198 L 1841 2202 L 1841 2206 L 1841 2215 L 1839 2219 L 1838 2219 L 1836 2224 L 1825 2234 L 1822 2238 L 1811 2250 L 1809 2253 L 1808 2254 L 1794 2266 L 1784 2275 L 1770 2286 L 1767 2288 L 1752 2299 L 1735 2311 L 1717 2323 L 1701 2335 L 1698 2337 L 1685 2345 L 1670 2349 L 1657 2360 L 1644 2363 L 1641 2364 L 1631 2373 L 1619 2375 L 1609 2378 L 1598 2381 L 1597 2382 L 1589 2384 L 1589 2384" stroke="#FFC114" stroke-width="50" fill="none" stroke-linecap="round" stroke-linejoin="round"/>
<path d="M 1878 2000 L 1878 2000 L 1878 2000 L 1878 2000 L 1878 1998 L 1878 1996 L 1878 1994 L 1878 1994 L 1878 1991 L 1879 1991 L 1881 1989 L 1882 1989 L 1882 1989 L 1882 1986 L 1884 1986 L 1885 1984 L 1887 1984 L 1887 1984 L 1887 1984 L 1889 1984 L 1891 1984 L 1893 1985 L 1894 1985 L 1895 1989 L 1897 1994 L 1898 2002 L 1899 2006 L 1899 2006 L 1900 2016 L 1901 2021 L 1903 2034 L 1904 2043 L 1904 2044 L 1905 2055 L 1906 2067 L 1907 2081 L 1908 2095 L 1908 2096 L 1909 2108 L 1911 2121 L 1912 2135 L 1912 2148 L 1912 2149 L 1912 2161 L 1912 2173 L 1913 2186 L 1914 2199 L 1914 2199 L 1915 2212 L 1917 2224 L 1917 2235 L 1919 2246 L 1919 2246 L 1920 2258 L 1921 2270 L 1923 2280 L 1925 2291 L 1925 2291 L 1928 2300 L 1929 2303 L 1930 2313 L 1930 2313" stroke="#FFC114" stroke-width="50" fill="none" stroke-linecap="round" stroke-linejoin="round"/>
<path d="M 1936 1836 L 1936 1836 L 1936 1836 L 1936 1836 L 1936 1834 L 1936 1834 L 1936 1831 L 1934 1821 L 1934 1819 L 1932 1816 L 1931 1815 L 1931 1812 L 1931 1802 L 1931 1801 L 1931 1798 L 1931 1798 L 1931 1794 L 1931 1791 L 1931 1788 L 1931 1785 L 1931 1785 L 1931 1785" stroke="#FFC114" stroke-width="50" fill="none" stroke-linecap="round" stroke-linejoin="round"/>
<path d="M 2351 2065 L 2351 2065 L 2351 2065 L 2351 2065 L 2349 2065 L 2348 2065 L 2348 2065 L 2347 2062 L 2347 2062 L 2344 2061 L 2344 2061 L 2344 2058 L 2342 2056 L 2339 2053 L 2338 2052 L 2337 2051 L 2334 2049 L 2330 2047 L 2321 2045 L 2319 2043 L 2318 2042 L 2315 2042 L 2304 2040 L 2300 2040 L 2292 2038 L 2287 2037 L 2284 2037 L 2271 2037 L 2268 2037 L 2259 2037 L 2255 2037 L 2245 2037 L 2236 2039 L 2225 2040 L 2218 2042 L 2215 2043 L 2204 2048 L 2194 2053 L 2183 2062 L 2176 2064 L 2173 2065 L 2164 2075 L 2153 2080 L 2144 2093 L 2138 2100 L 2134 2104 L 2125 2116 L 2115 2127 L 2112 2139 L 2105 2147 L 2101 2151 L 2099 2162 L 2096 2173 L 2092 2185 L 2091 2192 L 2090 2196 L 2090 2206 L 2090 2215 L 2090 2224 L 2090 2228 L 2090 2229 L 2091 2241 L 2095 2245 L 2099 2254 L 2102 2256 L 2104 2257 L 2113 2260 L 2117 2264 L 2125 2266 L 2129 2266 L 2130 2267 L 2143 2267 L 2153 2267 L 2164 2267 L 2171 2266 L 2175 2265 L 2188 2262 L 2201 2251 L 2215 2248 L 2223 2241 L 2228 2235 L 2242 2224 L 2257 2213 L 2272 2200 L 2280 2193 L 2286 2186 L 2299 2172 L 2312 2156 L 2323 2141 L 2329 2133 L 2334 2126 L 2343 2108 L 2347 2091 L 2358 2072 L 2360 2062 L 2361 2053 L 2364 2032 L 2369 2008 L 2373 1984 L 2374 1970 L 2375 1958 L 2377 1931 L 2377 1907 L 2377 1883 L 2377 1870 L 2377 1859 L 2377 1837 L 2377 1815 L 2374 1794 L 2373 1784 L 2372 1774 L 2369 1755 L 2366 1736 L 2363 1720 L 2360 1713 L 2359 1707 L 2355 1695 L 2352 1686 L 2348 1677 L 2347 1675 L 2347 1674 L 2344 1664 L 2342 1661 L 2339 1658 L 2338 1657 L 2337 1656 L 2334 1653 L 2334 1650 L 2333 1648 L 2333 1648 L 2333 1648 L 2330 1648 L 2330 1648 L 2328 1649 L 2328 1651 L 2328 1653 L 2326 1656 L 2326 1666 L 2323 1671 L 2323 1676 L 2323 1684 L 2323 1694 L 2323 1707 L 2323 1720 L 2323 1726 L 2323 1734 L 2323 1753 L 2323 1777 L 2323 1804 L 2323 1817 L 2323 1834 L 2323 1864 L 2323 1894 L 2323 1923 L 2323 1935 L 2323 1953 L 2325 1981 L 2326 2008 L 2329 2034 L 2330 2044 L 2331 2058 L 2334 2081 L 2338 2104 L 2342 2127 L 2343 2136 L 2345 2149 L 2348 2173 L 2353 2194 L 2358 2218 L 2360 2226 L 2363 2241 L 2372 2262 L 2374 2284 L 2383 2307 L 2385 2314 L 2387 2327 L 2397 2347 L 2397 2347" stroke="#FFC114" stroke-width="50" fill="none" stroke-linecap="round" stroke-linejoin="round"/>
<path d="M 2607 2034 L 2607 2034 L 2607 2034 L 2607 2034 L 2607 2034 L 2607 2031 L 2605 2027 L 2603 2018 L 2603 2015 L 2603 2015 L 2601 2012 L 2601 2008 L 2598 2005 L 2598 2004 L 2596 2002 L 2596 1998 L 2594 1994 L 2594 1991 L 2594 1990 L 2591 1988 L 2591 1985 L 2589 1985 L 2589 1985 L 2589 1985 L 2589 1985 L 2589 1988 L 2589 1991 L 2589 2002 L 2589 2004 L 2586 2005 L 2586 2018 L 2585 2027 L 2585 2036 L 2585 2038 L 2582 2049 L 2582 2062 L 2580 2077 L 2577 2095 L 2577 2099 L 2575 2113 L 2573 2132 L 2570 2151 L 2569 2168 L 2568 2171 L 2566 2185 L 2566 2202 L 2566 2219 L 2566 2235 L 2566 2237 L 2566 2250 L 2566 2265 L 2566 2280 L 2566 2295 L 2566 2297 L 2567 2309 L 2569 2323 L 2573 2335 L 2577 2347 L 2577 2349 L 2581 2359 L 2585 2363 L 2588 2375 L 2591 2378 L 2592 2379 L 2591 2378" stroke="#FFC114" stroke-width="50" fill="none" stroke-linecap="round" stroke-linejoin="round"/>
<path d="M 2586 1842 L 2586 1842 L 2586 1842 L 2586 1842 L 2583 1840 L 2583 1836 L 2581 1827 L 2578 1825 L 2578 1825 L 2577 1821 L 2574 1810 L 2574 1809 L 2572 1799 L 2572 1799 L 2572 1797 L 2569 1793 L 2569 1785 L 2567 1782 L 2567 1782 L 2567 1778 L 2567 1775 L 2567 1766 L 2567 1766 L 2567 1766 L 2567 1763 L 2567 1760 L 2567 1760" stroke="#FFC114" stroke-width="50" fill="none" stroke-linecap="round" stroke-linejoin="round"/>
<path d="M 3021 2081 L 3021 2081 L 3022 2081 L 3022 2081 L 3024 2081 L 3026 2081 L 3028 2079 L 3030 2079 L 3030 2079 L 3033 2077 L 3036 2075 L 3038 2072 L 3041 2070 L 3041 2070 L 3043 2067 L 3046 2065 L 3046 2062 L 3047 2061 L 3048 2061 L 3049 2058 L 3050 2056 L 3051 2053 L 3051 2052 L 3051 2051 L 3051 2049 L 3051 2047 L 3051 2045 L 3051 2042 L 3051 2042 L 3048 2040 L 3044 2037 L 3041 2035 L 3033 2033 L 3032 2032 L 3029 2032 L 3020 2031 L 3018 2031 L 3011 2028 L 3008 2028 L 3005 2028 L 2992 2028 L 2989 2028 L 2979 2028 L 2976 2028 L 2967 2028 L 2957 2028 L 2948 2029 L 2940 2032 L 2938 2032 L 2927 2036 L 2917 2040 L 2907 2045 L 2899 2053 L 2897 2056 L 2886 2059 L 2875 2070 L 2865 2075 L 2858 2086 L 2854 2089 L 2845 2101 L 2834 2113 L 2824 2126 L 2818 2136 L 2816 2139 L 2812 2156 L 2802 2170 L 2802 2184 L 2800 2194 L 2799 2197 L 2797 2210 L 2797 2221 L 2797 2232 L 2798 2241 L 2798 2243 L 2800 2254 L 2805 2264 L 2814 2273 L 2818 2279 L 2819 2283 L 2832 2286 L 2837 2295 L 2848 2296 L 2855 2299 L 2858 2300 L 2867 2300 L 2878 2302 L 2892 2302 L 2902 2302 L 2907 2302 L 2923 2299 L 2939 2289 L 2956 2286 L 2968 2278 L 2973 2275 L 2992 2264 L 3010 2254 L 3026 2243 L 3036 2236 L 3041 2232 L 3054 2222 L 3067 2211 L 3079 2199 L 3086 2191 L 3089 2188 L 3093 2177 L 3102 2167 L 3105 2156 L 3106 2151 L 3108 2147 L 3110 2138 L 3113 2129 L 3114 2126 L 3114 2117 L 3114 2111 L 3116 2102 L 3116 2093 L 3116 2083 L 3116 2078 L 3116 2075 L 3116 2065 L 3114 2056 L 3114 2047 L 3112 2040 L 3111 2037 L 3111 2028 L 3109 2019 L 3106 2010 L 3106 2007 L 3105 2006 L 3102 1994 L 3100 1991 L 3100 1982 L 3098 1981 L 3097 1980 L 3095 1976 L 3095 1972 L 3093 1970 L 3093 1969 L 3093 1968 L 3090 1968 L 3090 1968 L 3089 1968 L 3089 1968 L 3089 1968 L 3086 1969 L 3086 1972 L 3084 1982 L 3084 1984 L 3084 1985 L 3081 1997 L 3081 2002 L 3079 2015 L 3079 2019 L 3079 2023 L 3079 2034 L 3079 2045 L 3079 2055 L 3079 2061 L 3079 2066 L 3079 2078 L 3079 2092 L 3079 2105 L 3079 2113 L 3079 2121 L 3079 2134 L 3079 2151 L 3080 2167 L 3081 2175 L 3082 2183 L 3084 2198 L 3087 2213 L 3090 2228 L 3093 2236 L 3094 2243 L 3097 2257 L 3101 2271 L 3105 2284 L 3106 2292 L 3109 2299 L 3114 2311 L 3118 2323 L 3118 2323" stroke="#FFC114" stroke-width="50" fill="none" stroke-linecap="round" stroke-linejoin="round"/>
<path d="M 3301 2056 L 3301 2056 L 3301 2053 L 3301 2053 L 3301 2051 L 3297 2049 L 3294 2045 L 3290 2042 L 3289 2040 L 3287 2039 L 3284 2035 L 3280 2032 L 3276 2028 L 3276 2027 L 3274 2024 L 3272 2021 L 3270 2019 L 3268 2016 L 3267 2015 L 3265 2015 L 3263 2012 L 3263 2010 L 3263 2007 L 3263 2007 L 3263 2007 L 3263 2005 L 3263 2005 L 3263 2005 L 3263 2005 L 3264 2005 L 3266 2006 L 3268 2010 L 3271 2013 L 3272 2016 L 3273 2023 L 3276 2026 L 3278 2036 L 3280 2045 L 3280 2048 L 3282 2055 L 3285 2065 L 3287 2075 L 3289 2086 L 3290 2089 L 3292 2096 L 3294 2107 L 3296 2118 L 3298 2130 L 3299 2134 L 3300 2141 L 3301 2153 L 3302 2164 L 3303 2176 L 3303 2179 L 3304 2188 L 3306 2198 L 3306 2208 L 3309 2219 L 3310 2222 L 3310 2229 L 3311 2240 L 3312 2250 L 3314 2259 L 3314 2262 L 3314 2268 L 3316 2278 L 3317 2283 L 3319 2294 L 3319 2296 L 3319 2297 L 3322 2300 L 3324 2305 L 3327 2308 L 3327 2309 L 3328 2309 L 3331 2310 L 3333 2310 L 3336 2310 L 3336 2310 L 3338 2310 L 3340 2307 L 3343 2297 L 3344 2295 L 3345 2295 L 3347 2284 L 3349 2281 L 3352 2270 L 3354 2260 L 3354 2258 L 3357 2250 L 3358 2237 L 3362 2221 L 3366 2205 L 3366 2202 L 3369 2185 L 3374 2165 L 3377 2147 L 3382 2130 L 3383 2126 L 3391 2113 L 3393 2097 L 3398 2083 L 3407 2067 L 3409 2065 L 3411 2053 L 3420 2040 L 3423 2028 L 3434 2016 L 3435 2015 L 3438 2004 L 3450 1992 L 3460 1981 L 3469 1969 L 3471 1967 L 3479 1959 L 3490 1955 L 3502 1944 L 3512 1942 L 3514 1941 L 3523 1938 L 3533 1936 L 3542 1934 L 3552 1934 L 3553 1934 L 3561 1934 L 3570 1934 L 3579 1934 L 3584 1934 L 3585 1934 L 3596 1938 L 3600 1948 L 3612 1953 L 3617 1967 L 3617 1968 L 3628 1980 L 3633 1996 L 3643 2013 L 3645 2032 L 3646 2035 L 3649 2053 L 3652 2075 L 3655 2096 L 3655 2117 L 3655 2118 L 3655 2137 L 3655 2156 L 3655 2176 L 3655 2196 L 3655 2198 L 3653 2216 L 3651 2237 L 3649 2256 L 3647 2275 L 3646 2278 L 3643 2295 L 3641 2315 L 3637 2333 L 3634 2352 L 3634 2353 L 3631 2369 L 3628 2386 L 3628 2386" stroke="#FFC114" stroke-width="50" fill="none" stroke-linecap="round" stroke-linejoin="round"/>
<path d="M 4421 2028 L 4421 2028 L 4422 2028 L 4422 2028 L 4422 2028 L 4422 2028 L 4422 2028 L 4422 2028 L 4422 2028 L 4422 2028 L 4419 2029 L 4419 2031 L 4419 2032 L 4419 2036 L 4419 2043 L 4419 2045 L 4419 2049 L 4419 2062 L 4419 2070 L 4419 2079 L 4419 2083 L 4419 2097 L 4419 2118 L 4419 2143 L 4420 2162 L 4421 2172 L 4423 2202 L 4427 2234 L 4430 2267 L 4436 2291 L 4439 2303 L 4443 2338 L 4446 2373 L 4451 2408 L 4453 2432 L 4454 2444 L 4457 2480 L 4461 2517 L 4464 2552 L 4465 2577 L 4465 2590 L 4468 2625 L 4470 2660 L 4471 2697 L 4472 2720 L 4473 2734 L 4474 2770 L 4474 2803 L 4474 2835 L 4474 2852 L 4474 2863 L 4471 2889 L 4469 2911 L 4467 2931 L 4465 2942 L 4465 2949 L 4462 2965 L 4460 2978 L 4457 2987 L 4456 2989 L 4454 2991 L 4451 2994 L 4448 2998 L 4445 2999 L 4443 2999 L 4441 3000 L 4439 3000 L 4437 3000 L 4435 3000 L 4433 2995 L 4432 2991 L 4430 2987 L 4430 2987" stroke="#FFC114" stroke-width="50" fill="none" stroke-linecap="round" stroke-linejoin="round"/>
<path d="M 4367 2482 L 4367 2482 L 4367 2482 L 4367 2479 L 4367 2472 L 4367 2466 L 4367 2454 L 4367 2441 L 4364 2426 L 4364 2416 L 4364 2407 L 4364 2387 L 4364 2365 L 4364 2343 L 4364 2333 L 4364 2322 L 4364 2302 L 4364 2283 L 4365 2264 L 4367 2256 L 4369 2246 L 4373 2229 L 4378 2213 L 4383 2197 L 4388 2190 L 4393 2181 L 4397 2165 L 4407 2151 L 4416 2135 L 4421 2130 L 4427 2121 L 4435 2108 L 4446 2095 L 4457 2083 L 4461 2079 L 4465 2073 L 4475 2064 L 4484 2061 L 4494 2051 L 4495 2051 L 4498 2051 L 4510 2048 L 4514 2045 L 4525 2045 L 4526 2045 L 4528 2045 L 4533 2045 L 4542 2045 L 4546 2047 L 4547 2048 L 4550 2050 L 4559 2059 L 4562 2064 L 4565 2075 L 4567 2079 L 4570 2086 L 4574 2096 L 4578 2109 L 4581 2123 L 4583 2130 L 4584 2139 L 4586 2156 L 4587 2173 L 4587 2190 L 4587 2196 L 4587 2206 L 4587 2221 L 4584 2237 L 4574 2250 L 4573 2255 L 4571 2264 L 4559 2279 L 4549 2294 L 4538 2310 L 4533 2315 L 4524 2325 L 4508 2340 L 4491 2355 L 4474 2369 L 4469 2372 L 4457 2381 L 4441 2394 L 4423 2406 L 4405 2418 L 4400 2421 L 4388 2429 L 4371 2438 L 4354 2448 L 4338 2452 L 4333 2456 L 4324 2462 L 4308 2465 L 4294 2468 L 4280 2472 L 4276 2472 L 4267 2474 L 4267 2474" stroke="#FFC114" stroke-width="50" fill="none" stroke-linecap="round" stroke-linejoin="round"/>
<path d="M 4674 1818 L 4674 1818 L 4674 1818 L 4674 1815 L 4674 1812 L 4674 1809 L 4674 1808 L 4671 1799 L 4669 1797 L 4667 1794 L 4665 1791 L 4664 1790 L 4662 1788 L 4660 1785 L 4657 1781 L 4655 1777 L 4655 1776 L 4653 1775 L 4651 1772 L 4648 1772 L 4646 1772 L 4645 1772 L 4644 1772 L 4641 1772 L 4639 1772 L 4637 1776 L 4636 1776 L 4635 1780 L 4635 1790 L 4632 1793 L 4632 1806 L 4632 1807 L 4630 1815 L 4627 1825 L 4625 1836 L 4623 1851 L 4623 1853 L 4621 1870 L 4618 1891 L 4614 1915 L 4611 1939 L 4611 1942 L 4608 1966 L 4605 1990 L 4602 2013 L 4600 2035 L 4600 2037 L 4597 2055 L 4595 2075 L 4593 2093 L 4593 2111 L 4593 2113 L 4590 2130 L 4590 2147 L 4590 2164 L 4590 2181 L 4590 2183 L 4590 2200 L 4592 2219 L 4594 2237 L 4597 2256 L 4597 2258 L 4598 2275 L 4602 2292 L 4606 2311 L 4609 2330 L 4610 2331 L 4614 2347 L 4623 2362 L 4623 2362" stroke="#FFC114" stroke-width="50" fill="none" stroke-linecap="round" stroke-linejoin="round"/>
<path d="M 4814 2067 L 4814 2067 L 4814 2067 L 4814 2065 L 4814 2065 L 4811 2062 L 4811 2059 L 4809 2056 L 4809 2053 L 4809 2053 L 4809 2049 L 4809 2045 L 4809 2042 L 4809 2039 L 4809 2039 L 4809 2035 L 4809 2032 L 4809 2029 L 4809 2027 L 4809 2027 L 4809 2024 L 4809 2023 L 4809 2023 L 4809 2020 L 4809 2020 L 4809 2020 L 4809 2020 L 4809 2023 L 4809 2025 L 4809 2026 L 4809 2035 L 4809 2039 L 4809 2050 L 4809 2058 L 4809 2059 L 4806 2069 L 4806 2079 L 4804 2089 L 4804 2100 L 4804 2102 L 4802 2116 L 4800 2131 L 4800 2147 L 4797 2161 L 4797 2164 L 4795 2178 L 4795 2194 L 4793 2208 L 4793 2221 L 4793 2224 L 4793 2237 L 4793 2251 L 4793 2265 L 4793 2275 L 4793 2278 L 4795 2291 L 4798 2302 L 4802 2313 L 4805 2322 L 4806 2323 L 4809 2326 L 4819 2335 L 4820 2337 L 4824 2339 L 4825 2340 L 4836 2341 L 4839 2343 L 4849 2343 L 4853 2343 L 4854 2343 L 4866 2343 L 4870 2341 L 4882 2338 L 4890 2330 L 4892 2327 L 4904 2324 L 4917 2310 L 4930 2299 L 4942 2289 L 4944 2287 L 4958 2275 L 4972 2258 L 4985 2242 L 4997 2228 L 5000 2224 L 5012 2206 L 5023 2188 L 5032 2170 L 5039 2156 L 5041 2153 L 5046 2137 L 5056 2121 L 5058 2104 L 5062 2092 L 5062 2089 L 5064 2075 L 5066 2061 L 5066 2047 L 5066 2036 L 5066 2032 L 5066 2020 L 5063 2007 L 5060 1996 L 5057 1987 L 5056 1984 L 5053 1974 L 5049 1964 L 5046 1961 L 5043 1954 L 5042 1952 L 5040 1952 L 5038 1948 L 5038 1946 L 5036 1944 L 5036 1944 L 5036 1942 L 5033 1942 L 5033 1942 L 5032 1942 L 5031 1942 L 5031 1942 L 5028 1942 L 5028 1942 L 5027 1945 L 5026 1946 L 5026 1950 L 5024 1959 L 5024 1964 L 5023 1972 L 5022 1975 L 5022 1985 L 5022 1996 L 5022 2006 L 5022 2015 L 5022 2019 L 5022 2034 L 5022 2050 L 5022 2066 L 5022 2077 L 5022 2083 L 5022 2099 L 5022 2113 L 5023 2129 L 5025 2139 L 5026 2143 L 5030 2159 L 5033 2173 L 5038 2189 L 5040 2198 L 5042 2202 L 5053 2216 L 5056 2232 L 5068 2246 L 5070 2255 L 5072 2260 L 5085 2275 L 5095 2287 L 5104 2300 L 5110 2307 L 5114 2311 L 5125 2321 L 5125 2321" stroke="#FFC114" stroke-width="50" fill="none" stroke-linecap="round" stroke-linejoin="round"/>
<path d="M 5534 2018 L 5534 2018 L 5534 2018 L 5534 2018 L 5534 2018 L 5530 2015 L 5521 2013 L 5520 2012 L 5518 2011 L 5509 2008 L 5507 2006 L 5498 2004 L 5496 2002 L 5494 2002 L 5484 1999 L 5480 1997 L 5467 1994 L 5462 1994 L 5458 1992 L 5448 1992 L 5439 1992 L 5429 1992 L 5424 1992 L 5419 1992 L 5409 1992 L 5398 1994 L 5388 1994 L 5383 1996 L 5377 1998 L 5367 2002 L 5356 2013 L 5345 2016 L 5339 2022 L 5330 2029 L 5314 2040 L 5298 2053 L 5280 2066 L 5272 2075 L 5263 2083 L 5247 2100 L 5232 2115 L 5219 2130 L 5214 2136 L 5207 2143 L 5198 2157 L 5195 2170 L 5185 2183 L 5185 2188 L 5185 2194 L 5183 2205 L 5181 2215 L 5181 2224 L 5181 2228 L 5181 2234 L 5181 2238 L 5183 2250 L 5187 2254 L 5189 2258 L 5191 2264 L 5201 2266 L 5204 2270 L 5215 2273 L 5219 2274 L 5224 2275 L 5233 2275 L 5244 2275 L 5253 2275 L 5258 2275 L 5266 2275 L 5277 2273 L 5288 2271 L 5302 2267 L 5308 2263 L 5317 2256 L 5334 2252 L 5350 2241 L 5367 2230 L 5373 2227 L 5383 2220 L 5398 2208 L 5412 2198 L 5425 2185 L 5429 2181 L 5437 2173 L 5450 2161 L 5458 2148 L 5463 2135 L 5466 2131 L 5472 2123 L 5475 2111 L 5479 2101 L 5482 2091 L 5482 2087 L 5483 2081 L 5484 2072 L 5485 2062 L 5485 2053 L 5485 2050 L 5485 2045 L 5485 2035 L 5483 2032 L 5480 2019 L 5480 2018 L 5480 2015 L 5478 2004 L 5475 2002 L 5475 1998 L 5475 1997 L 5474 1994 L 5474 1991 L 5471 1989 L 5471 1986 L 5471 1985 L 5469 1986 L 5469 1986 L 5467 1986 L 5467 1988 L 5467 1988 L 5464 1991 L 5464 1996 L 5464 2006 L 5464 2011 L 5464 2012 L 5464 2024 L 5464 2035 L 5464 2048 L 5464 2064 L 5464 2068 L 5464 2086 L 5466 2111 L 5469 2140 L 5472 2170 L 5473 2177 L 5475 2202 L 5479 2232 L 5484 2265 L 5493 2297 L 5496 2306 L 5496 2329 L 5500 2360 L 5509 2389 L 5512 2416 L 5512 2423 L 5515 2446 L 5520 2475 L 5523 2505 L 5526 2535 L 5527 2542 L 5530 2563 L 5531 2591 L 5531 2617 L 5531 2643 L 5531 2649 L 5531 2668 L 5522 2693 L 5520 2717 L 5508 2739 L 5506 2744 L 5505 2760 L 5490 2778 L 5479 2795 L 5467 2808 L 5464 2812 L 5453 2820 L 5437 2831 L 5423 2836 L 5407 2847 L 5405 2850 L 5390 2851 L 5374 2855 L 5356 2859 L 5340 2863 L 5338 2863 L 5322 2865 L 5304 2866 L 5285 2866 L 5266 2866 L 5264 2866 L 5249 2863 L 5232 2853 L 5215 2851 L 5201 2842 L 5198 2840 L 5185 2838 L 5173 2825 L 5161 2816 L 5158 2807 L 5157 2805 L 5147 2797 L 5144 2786 L 5142 2774 L 5139 2763 L 5139 2762 L 5139 2750 L 5139 2736 L 5141 2720 L 5145 2701 L 5146 2700 L 5157 2681 L 5167 2659 L 5181 2636 L 5198 2613 L 5199 2610 L 5215 2587 L 5236 2562 L 5258 2538 L 5279 2514 L 5281 2511 L 5302 2490 L 5324 2465 L 5347 2441 L 5369 2416 L 5371 2413 L 5393 2392 L 5417 2370 L 5441 2348 L 5467 2327 L 5469 2326 L 5492 2307 L 5515 2284 L 5537 2264 L 5559 2243 L 5560 2241 L 5578 2224 L 5599 2204 L 5619 2184 L 5640 2165 L 5641 2164 L 5659 2148 L 5680 2134 L 5697 2121 L 5716 2108 L 5717 2107 L 5731 2096 L 5746 2086 L 5758 2083 L 5769 2070 L 5769 2070 L 5780 2067 L 5784 2058 L 5795 2058 L 5798 2055 L 5799 2054 L 5803 2051 L 5808 2049 L 5811 2047 L 5814 2045 L 5815 2045 L 5816 2042 L 5819 2042 L 5820 2040 L 5820 2040 L 5820 2040 L 5820 2037 L 5820 2037 L 5820 2037 L 5818 2037 L 5818 2037 L 5816 2037 L 5813 2037 L 5811 2039 L 5808 2042 L 5808 2042 L 5804 2045 L 5800 2050 L 5797 2059 L 5794 2062 L 5794 2062 L 5790 2067 L 5786 2079 L 5783 2083 L 5780 2097 L 5780 2097 L 5778 2108 L 5775 2118 L 5773 2131 L 5769 2146 L 5769 2146 L 5766 2162 L 5764 2178 L 5761 2194 L 5759 2210 L 5759 2211 L 5759 2226 L 5756 2241 L 5756 2259 L 5756 2277 L 5756 2278 L 5756 2296 L 5756 2313 L 5756 2330 L 5756 2344 L 5756 2346 L 5758 2361 L 5759 2376 L 5760 2391 L 5761 2405 L 5761 2406 L 5764 2421 L 5766 2435 L 5769 2448 L 5771 2459 L 5772 2460 L 5775 2472 L 5780 2481 L 5783 2486 L 5786 2495 L 5786 2496 L 5790 2498 L 5794 2502 L 5797 2505 L 5800 2506 L 5800 2506 L 5804 2508 L 5808 2508 L 5808 2508" stroke="#FFC114" stroke-width="50" fill="none" stroke-linecap="round" stroke-linejoin="round"/>
<path d="M 5724 1900 L 5724 1900 L 5722 1900 L 5720 1898 L 5719 1897 L 5718 1888 L 5714 1886 L 5705 1877 L 5705 1874 L 5705 1873 L 5701 1863 L 5697 1859 L 5694 1849 L 5692 1846 L 5692 1845 L 5689 1835 L 5688 1832 L 5685 1821 L 5685 1819 L 5685 1819 L 5685 1810 L 5685 1807 L 5685 1798 L 5686 1797 L 5686 1796 L 5688 1793 L 5692 1789 L 5695 1785 L 5698 1784 L 5699 1783 L 5702 1781 L 5707 1781 L 5707 1781" stroke="#FFC114" stroke-width="50" fill="none" stroke-linecap="round" stroke-linejoin="round"/>
<path d="M 5943 2024 L 5943 2024 L 5944 2024 L 5944 2024 L 5944 2024 L 5944 2024 L 5944 2024 L 5945 2024 L 5946 2024 L 5947 2024 L 5948 2024 L 5948 2024 L 5949 2024 L 5951 2024 L 5952 2024 L 5953 2024 L 5956 2024 L 5959 2024 L 5962 2024 L 5964 2026 L 5965 2027 L 5969 2031 L 5973 2035 L 5976 2045 L 5978 2047 L 5981 2049 L 5984 2062 L 5987 2070 L 5991 2080 L 5993 2086 L 5995 2091 L 5998 2101 L 6002 2111 L 6005 2121 L 6006 2128 L 6008 2134 L 6010 2147 L 6013 2161 L 6016 2176 L 6016 2184 L 6018 2190 L 6020 2205 L 6022 2219 L 6025 2232 L 6025 2240 L 6026 2246 L 6027 2260 L 6028 2273 L 6029 2286 L 6030 2292 L 6030 2299 L 6030 2311 L 6030 2323 L 6030 2333 L 6030 2339 L 6030 2343 L 6030 2347 L 6032 2356 L 6032 2360 L 6032 2361 L 6033 2363 L 6034 2367 L 6034 2370 L 6034 2373 L 6034 2374 L 6035 2375 L 6036 2376 L 6038 2376 L 6038 2376 L 6039 2375 L 6040 2373 L 6041 2370 L 6042 2367 L 6044 2355 L 6046 2354 L 6046 2352 L 6050 2338 L 6059 2326 L 6064 2309 L 6070 2300 L 6078 2288 L 6089 2265 L 6103 2241 L 6117 2215 L 6123 2205 L 6131 2192 L 6146 2170 L 6161 2149 L 6176 2131 L 6183 2123 L 6191 2113 L 6206 2096 L 6221 2081 L 6235 2067 L 6240 2063 L 6248 2056 L 6260 2047 L 6273 2037 L 6285 2028 L 6289 2024 L 6296 2019 L 6308 2015 L 6319 2005 L 6331 2002 L 6336 1999 L 6342 1994 L 6354 1991 L 6366 1989 L 6376 1986 L 6380 1986 L 6387 1986 L 6397 1986 L 6407 1986 L 6417 1989 L 6420 1990 L 6425 1992 L 6435 2002 L 6444 2007 L 6453 2021 L 6456 2025 L 6463 2032 L 6468 2047 L 6479 2061 L 6482 2077 L 6485 2083 L 6492 2093 L 6495 2110 L 6498 2126 L 6503 2143 L 6504 2148 L 6506 2159 L 6510 2175 L 6514 2190 L 6517 2204 L 6518 2208 L 6520 2218 L 6523 2232 L 6528 2244 L 6530 2257 L 6531 2261 L 6532 2270 L 6534 2283 L 6536 2296 L 6539 2309 L 6540 2313 L 6541 2322 L 6541 2322" stroke="#FFC114" stroke-width="50" fill="none" stroke-linecap="round" stroke-linejoin="round"/></svg>